PathFileType	4	(X/Y/Z)	D:\Research_projects\MuscleProsody\BulkSports2Dtrack\RetrackedSports2D\p1_sample60_cam2\p1_sample60_cam2_Sports2D\p1_sample60_cam2_Sports2D_px_person00.trc
DataRate	CameraRate	NumFrames	NumMarkers	Units	OrigDataRate	OrigDataStartFrame	OrigNumFrames
60	60	4	22	m	60	487	780
Frame#	Time	Hip			RHip			RKnee			RAnkle			RBigToe			RSmallToe			RHeel			LHip			LKnee			LAnkle			LBigToe			LSmallToe			LHeel			Neck			Head			Nose			RShoulder			RElbow			RWrist			LShoulder			LElbow			LWrist		
		X1	Y1	Z1	X2	Y2	Z2	X3	Y3	Z3	X4	Y4	Z4	X5	Y5	Z5	X6	Y6	Z6	X7	Y7	Z7	X8	Y8	Z8	X9	Y9	Z9	X10	Y10	Z10	X11	Y11	Z11	X12	Y12	Z12	X13	Y13	Z13	X14	Y14	Z14	X15	Y15	Z15	X16	Y16	Z16	X17	Y17	Z17	X18	Y18	Z18	X19	Y19	Z19	X20	Y20	Z20	X21	Y21	Z21	X22	Y22	Z22
487	8.116666666666667	244.951194855786	514.0258910000704	0.0	217.32650160522988	517.56577866185	0.0	216.69555131557226	635.773612167516	0.0	221.642203394879	729.3557098463222	0.0	220.4070442747157	767.4936212277729	0.0	204.25613645443164	761.6361277121132	0.0	227.86918869379156	738.7246810504199	0.0	272.6739063609969	520.4668532821333	0.0	268.30762021051197	636.7118496168808	0.0	269.0651643242043	733.0843144582857	0.0	265.75546646616425	770.2183373146275	0.0	281.983698890345	765.8306230259517	0.0	266.86344356015684	740.9019187083047	0.0	252.49499642980615	329.6402636285193	0.0	249.7635015578969	245.98499906505296	0.0	237.44751520161654	290.60502403555904	0.0	203.8567783435546	359.0387071232298	0.0	158.2778860701122	428.19234537247513	0.0	178.60914712595772	390.4153113578625	0.0	305.5446856575291	358.72433646180696	0.0	342.2513666537908	434.9356115506797	0.0	299.5461001738689	417.4106408320593	0.0
488	8.133333333333333	244.92807650128384	513.9958343389553	0.0	217.34562627015433	517.264974630024	0.0	216.66449536859707	635.6276085713164	0.0	221.6190879562234	729.2268381159334	0.0	220.3112689471388	767.326816538305	0.0	204.19691943585525	761.3936437938164	0.0	227.8692517346767	738.6229888432181	0.0	272.68180765522493	520.157071017157	0.0	268.2909996861083	636.6521470116813	0.0	268.87902367152145	733.0032835099489	0.0	265.9386420774949	770.0451169155577	0.0	282.05587392167973	765.5907999625838	0.0	266.5707923229915	740.909843386896	0.0	252.43923852087173	329.66375143371937	0.0	249.66791457284268	246.05293667241858	0.0	237.47633770877687	290.857211475743	0.0	203.75742926048238	359.64240243802664	0.0	161.95747131722428	430.77150677412817	0.0	172.28828867656264	390.1379965186122	0.0	305.5737956260363	359.1305646149806	0.0	339.3738497269086	436.29884302068655	0.0	305.260254512072	418.21923137545167	0.0
489	8.15	244.92041251260508	513.9567521054944	0.0	217.40086782264865	516.9270380563777	0.0	216.6436142230712	635.4477101753237	0.0	221.58605240990005	729.1363713518236	0.0	220.23800676100166	767.1570804614537	0.0	204.15268174728072	761.1515124961426	0.0	227.8735292938263	738.5824570927774	0.0	272.70632047586577	519.8227931736357	0.0	268.2853488492291	636.5516375378844	0.0	268.6781297978324	732.9062014773843	0.0	266.10112270155065	769.8632265005858	0.0	282.16279159863234	765.33330918841	0.0	266.2323575074094	740.9319713025325	0.0	252.40478789027728	329.7004414439111	0.0	249.6333515913442	246.15387333783167	0.0	237.57155167149577	291.11961128857547	0.0	203.64642509855295	360.29212188534353	0.0	165.53581460953328	433.0029637837283	0.0	165.4131340747304	391.72702148028577	0.0	305.5944923392925	359.5454938258949	0.0	336.37751471745275	437.38819124093357	0.0	311.43227746134596	420.64655099392974	0.0
490	8.166666666666666	244.93540638783458	513.914288052295	0.0	217.48973751377974	516.5662074430152	0.0	216.6323742306085	635.2390798655749	0.0	221.54272527354487	729.0757054475113	0.0	220.19341655509817	766.9869010346238	0.0	204.1336457741112	760.9123336210896	0.0	227.8867480193198	738.5887214054554	0.0	272.7497391216634	519.4763308675583	0.0	268.27784754972544	636.4092738326011	0.0	268.47577376994604	732.7949885098719	0.0	266.2379346253502	769.6772667786252	0.0	282.2957917820094	765.0672299424733	0.0	265.8700566742323	740.9638512337557	0.0	252.39343982282742	329.7459550952865	0.0	249.65714548159113	246.2825345148526	0.0	237.72548782196802	291.3884383628008	0.0	203.54136866605538	360.94847596808876	0.0	168.83871553213132	434.78391336891616	0.0	158.26888315288738	395.10172405877296	0.0	305.59164707146715	359.9431848026581	0.0	333.41171255354294	438.10267882483237	0.0	317.7850083755525	424.5272505319452	0.0
